<?xml version="1.0" encoding="utf-8"?>
<!-- Generator: Adobe Illustrator 22.0.1, SVG Export Plug-In . SVG Version: 6.00 Build 0)  -->
<svg version="1.1" id="Layer_1" xmlns="http://www.w3.org/2000/svg" xmlns:xlink="http://www.w3.org/1999/xlink" x="0px" y="0px"
	 viewBox="0 0 300 300" style="enable-background:new 0 0 300 300;" xml:space="preserve">
<style type="text/css">
	.st0{fill:#FFFFFF;}
	.st1{fill:url(#SVGID_1_);}
	.st2{fill:url(#SVGID_2_);}
	.st3{fill:url(#SVGID_3_);}
	.st4{fill:url(#SVGID_4_);}
	.st5{fill-rule:evenodd;clip-rule:evenodd;fill:url(#SVGID_5_);}
</style>
<g>
	<circle class="st0" cx="149" cy="149.6" r="138"/>
	<g>
		<g>
			<linearGradient id="SVGID_1_" gradientUnits="userSpaceOnUse" x1="47.9383" y1="48.8856" x2="172.9012" y2="48.8856">
				<stop  offset="0" style="stop-color:#AA3560"/>
				<stop  offset="1" style="stop-color:#7E2461"/>
			</linearGradient>
			<path class="st1" d="M81.6,51.1c8.1-3.4,16.6-5.9,25.2-7.3c19.3-11.1,42.1-16,64.3-14c2,0.2,2.5-2.8,0.4-3.2c0,0-0.1,0-0.1,0
				C133.3,19.6,92.1,31.2,63.1,57c-5.5,4.9-10.6,10.4-15.2,16.2C57.8,63.8,69.1,56.4,81.6,51.1z"/>
			<linearGradient id="SVGID_2_" gradientUnits="userSpaceOnUse" x1="17.9039" y1="154.531" x2="186.7897" y2="154.531">
				<stop  offset="0" style="stop-color:#AA3560"/>
				<stop  offset="1" style="stop-color:#7E2461"/>
			</linearGradient>
			<path class="st2" d="M186.8,245.1c-12.9,4.4-26.7,6-40.4,4.9c-3.5-0.3-6.9-0.7-10.3-1.3c-6.5-1.2-13-3-19.2-5.4
				c-2.3-0.9-4.6-1.9-6.9-3c-9.2-4.4-17.8-10-25.4-16.8c-2.1-1.9-4.1-3.8-6-5.8c-4.7-4.9-8.9-10.3-12.5-16.1
				c-2.6-4.1-4.8-8.4-6.7-12.9c-9.5-22.1-11-47.7-3.3-70.5c9.3-27.5,32.1-50.3,59.8-59l-1.9-1.2c-4.3-2.8-10.8-0.6-15.5,2.2
				c-12.9,7.6-24.5,17.5-33.9,29.2c13.2-21,34.4-36.8,58.2-43.6c-58.3,2-105.1,50.1-105,108.9C18,213.5,65.5,262,124.4,263.3
				C147.4,263.7,169,257,186.8,245.1z"/>
			<linearGradient id="SVGID_3_" gradientUnits="userSpaceOnUse" x1="61.1322" y1="247.5844" x2="261.2861" y2="247.5844">
				<stop  offset="0" style="stop-color:#AA3560"/>
				<stop  offset="1" style="stop-color:#7E2461"/>
			</linearGradient>
			<path class="st3" d="M229.2,216.2c-3,0-5.9-0.4-8.6-1.1c-0.7,0.7-1.4,1.4-2.1,2.1c-4,6-8.6,11.6-13.8,16.7
				c-10.3,10.3-22.3,18.4-35.7,24c-13.8,5.9-28.5,8.8-43.7,8.8s-29.8-3-43.7-8.8c-7.3-3.1-14.1-6.9-20.5-11.3
				c4.7,4.4,9.8,8.5,15.2,12.2c43.5,29.5,105.4,28.3,147.9-2.6c6.3-4.6,12.2-9.8,17.7-15.4c7.3-7.5,13.7-15.8,19.4-24.6H229.2z"/>
		</g>
		<linearGradient id="SVGID_4_" gradientUnits="userSpaceOnUse" x1="179.6098" y1="204.5193" x2="267.1364" y2="204.5193">
			<stop  offset="0" style="stop-color:#AA3560"/>
			<stop  offset="1" style="stop-color:#7E2461"/>
		</linearGradient>
		<path class="st4" d="M249.6,221.1h-36.8c-18.3,0-33.1-14.8-33.1-33.1v0h72c8.6,0,15.5,7,15.5,15.5v0
			C267.1,213.2,259.3,221.1,249.6,221.1z"/>
	</g>
	<g>
		<g>
			<linearGradient id="SVGID_5_" gradientUnits="userSpaceOnUse" x1="95.2698" y1="145.8456" x2="189.8573" y2="145.8456">
				<stop  offset="0" style="stop-color:#AA3560"/>
				<stop  offset="1" style="stop-color:#7E2461"/>
			</linearGradient>
			<path class="st5" d="M189.9,134.5c0-26.1-21.2-47.3-47.3-47.3c-26.1,0-47.3,21.2-47.3,47.3c0,2.9,0.3,5.8,0.8,8.6
				c0.8,5.3,6.3,28.9,41.1,59.3c1.9,1.6,4.4,2.5,6.9,2.1c0.1,0,0.2,0,0.3,0c1.5-0.3,2.9-0.9,4.1-1.9c5.4-4.6,29-25.6,38.1-50.5
				c1.2-3,2.1-6.1,2.6-9.3c0-0.2,0.1-0.5,0.1-0.7h0C189.7,139.5,189.9,137,189.9,134.5z M143,163.3c-15.7,0-28.5-12.8-28.5-28.5
				c0-15.7,12.8-28.5,28.5-28.5c15.7,0,28.5,12.8,28.5,28.5C171.5,150.6,158.7,163.3,143,163.3z"/>
		</g>
	</g>
</g>
</svg>
